<svg xmlns="http://www.w3.org/2000/svg" xmlns:xlink="http://www.w3.org/1999/xlink" xmlns:inkscape="http://www.inkscape.org/namespaces/inkscape" version="1.1" width="276" height="37" viewBox="0 0 276 37">
<defs>
<clipPath id="clip_1">
<path transform="matrix(1.00009,0,0,-1.00005,2.295494,24.676434)" d="M0 0V22.67723H22.67723V0ZM22.67723 22.67723"/>
</clipPath>
<g id="pattern_tile_2">
<path transform="matrix(1,0,0,-1,-153,736)" stroke-width=".39851" stroke-linecap="butt" stroke-miterlimit="10" stroke-linejoin="miter" fill="none" stroke="#000000" d="M0 0 3.08842 3.08842"/>
</g>
<pattern id="pattern_2" patternUnits="userSpaceOnUse" patternContentUnits="userSpaceOnUse" x="0" y="0" width="2.9888" height="2.9888">
<clipPath id="clip_3">
<path d="M -.99628 -.99628 L 3.98506 -.99628 L 3.98506 3.98506 L -.99628 3.98506 Z"/>
</clipPath>
<g clip-path="url(#clip_3)">
<g transform="matrix(1,0,0,-1,153,736)">
<use x="0" y="0" xlink:href="#pattern_tile_2"/>
<use x="0" y="-2.9888" xlink:href="#pattern_tile_2"/>
<use x="-2.9888" y="0" xlink:href="#pattern_tile_2"/>
<use x="-2.9888" y="-2.9888" xlink:href="#pattern_tile_2"/>
</g>
</g>
</pattern>
<clipPath id="clip_4">
<path transform="matrix(1.00009,0,0,-1.00005,2.295494,24.676434)" d="M22.67723 0V22.67723H45.35448V0ZM45.35448 22.67723"/>
</clipPath>
<g id="pattern_tile_5">
<path transform="matrix(1,0,0,-1,-153,736)" stroke-width=".39851" stroke-linecap="butt" stroke-miterlimit="10" stroke-linejoin="miter" fill="none" stroke="#000000" d="M0 0 3.08842 3.08842"/>
</g>
<pattern id="pattern_5" patternUnits="userSpaceOnUse" patternContentUnits="userSpaceOnUse" x="0" y="0" width="2.9888" height="2.9888">
<clipPath id="clip_6">
<path d="M -.99628 -.99628 L 3.98506 -.99628 L 3.98506 3.98506 L -.99628 3.98506 Z"/>
</clipPath>
<g clip-path="url(#clip_6)">
<g transform="matrix(1,0,0,-1,153,736)">
<use x="0" y="0" xlink:href="#pattern_tile_5"/>
<use x="0" y="-2.9888" xlink:href="#pattern_tile_5"/>
<use x="-2.9888" y="0" xlink:href="#pattern_tile_5"/>
<use x="-2.9888" y="-2.9888" xlink:href="#pattern_tile_5"/>
</g>
</g>
</pattern>
<clipPath id="clip_7">
<path transform="matrix(1.00009,0,0,-1.00005,2.295494,24.676434)" d="M45.35448 0V22.67723H68.03172V0ZM68.03172 22.67723"/>
</clipPath>
<g id="pattern_tile_8">
<path transform="matrix(1,0,0,-1,-153,736)" stroke-width=".39851" stroke-linecap="butt" stroke-miterlimit="10" stroke-linejoin="miter" fill="none" stroke="#000000" d="M0 0 3.08842 3.08842"/>
</g>
<pattern id="pattern_8" patternUnits="userSpaceOnUse" patternContentUnits="userSpaceOnUse" x="0" y="0" width="2.9888" height="2.9888">
<clipPath id="clip_9">
<path d="M -.99628 -.99628 L 3.98506 -.99628 L 3.98506 3.98506 L -.99628 3.98506 Z"/>
</clipPath>
<g clip-path="url(#clip_9)">
<g transform="matrix(1,0,0,-1,153,736)">
<use x="0" y="0" xlink:href="#pattern_tile_8"/>
<use x="0" y="-2.9888" xlink:href="#pattern_tile_8"/>
<use x="-2.9888" y="0" xlink:href="#pattern_tile_8"/>
<use x="-2.9888" y="-2.9888" xlink:href="#pattern_tile_8"/>
</g>
</g>
</pattern>
<path id="font_10_1" d="M.44400025 .24998474C.44400025 .35688783 .35499574 .44381715 .25 .44381715 .14199829 .44381715 .054992677 .35488893 .054992677 .24998474 .054992677 .14407349 .14199829 .056137086 .25 .056137086 .35499574 .056137086 .44400025 .14308167 .44400025 .24998474Z"/>
<clipPath id="clip_11">
<path transform="matrix(1.00009,0,0,-1.00005,2.295494,24.676434)" d="M102.04762 0V22.67723H124.72485V0ZM124.72485 22.67723"/>
</clipPath>
<g id="pattern_tile_12">
<path transform="matrix(1,0,0,-1,-153,736)" stroke-width=".39851" stroke-linecap="butt" stroke-miterlimit="10" stroke-linejoin="miter" fill="none" stroke="#000000" d="M0 0 3.08842 3.08842"/>
</g>
<pattern id="pattern_12" patternUnits="userSpaceOnUse" patternContentUnits="userSpaceOnUse" x="0" y="0" width="2.9888" height="2.9888">
<clipPath id="clip_13">
<path d="M -.99628 -.99628 L 3.98506 -.99628 L 3.98506 3.98506 L -.99628 3.98506 Z"/>
</clipPath>
<g clip-path="url(#clip_13)">
<g transform="matrix(1,0,0,-1,153,736)">
<use x="0" y="0" xlink:href="#pattern_tile_12"/>
<use x="0" y="-2.9888" xlink:href="#pattern_tile_12"/>
<use x="-2.9888" y="0" xlink:href="#pattern_tile_12"/>
<use x="-2.9888" y="-2.9888" xlink:href="#pattern_tile_12"/>
</g>
</g>
</pattern>
<path id="font_14_283" d="M1.1490021 .25598146V.2919922H0V.25598146H1.1490021Z"/>
<clipPath id="clip_15">
<path transform="matrix(1.00009,0,0,-1.00005,2.295494,24.676434)" d="M249.44974 0V22.67723H272.12699V0ZM272.12699 22.67723"/>
</clipPath>
<g id="pattern_tile_16">
<path transform="matrix(1,0,0,-1,-153,736)" stroke-width=".39851" stroke-linecap="butt" stroke-miterlimit="10" stroke-linejoin="miter" fill="none" stroke="#000000" d="M0 0 3.08842 3.08842"/>
</g>
<pattern id="pattern_16" patternUnits="userSpaceOnUse" patternContentUnits="userSpaceOnUse" x="0" y="0" width="2.9888" height="2.9888">
<clipPath id="clip_17">
<path d="M -.99628 -.99628 L 3.98506 -.99628 L 3.98506 3.98506 L -.99628 3.98506 Z"/>
</clipPath>
<g clip-path="url(#clip_17)">
<g transform="matrix(1,0,0,-1,153,736)">
<use x="0" y="0" xlink:href="#pattern_tile_16"/>
<use x="0" y="-2.9888" xlink:href="#pattern_tile_16"/>
<use x="-2.9888" y="0" xlink:href="#pattern_tile_16"/>
<use x="-2.9888" y="-2.9888" xlink:href="#pattern_tile_16"/>
</g>
</g>
</pattern>
</defs>
<g clip-path="url(#clip_1)">
<rect transform="matrix(1,0,0,-1,-153,736)" fill="url(#pattern_2)" x="155.09622" y="711.12429" width="23.07782" height="23.076966"/>
</g>
<path transform="matrix(1.00009,0,0,-1.00005,2.295494,24.676434)" stroke-width=".39851" stroke-linecap="butt" stroke-miterlimit="10" stroke-linejoin="miter" fill="none" stroke="#000000" d="M0 0V22.67723H22.67723V0ZM22.67723 22.67723"/>
<g clip-path="url(#clip_4)">
<rect transform="matrix(1,0,0,-1,-153,736)" fill="url(#pattern_5)" x="177.7755" y="711.12429" width="23.077836" height="23.076966"/>
</g>
<path transform="matrix(1.00009,0,0,-1.00005,2.295494,24.676434)" stroke-width=".39851" stroke-linecap="butt" stroke-miterlimit="10" stroke-linejoin="miter" fill="none" stroke="#000000" d="M22.67723 0V22.67723H45.35448V0ZM45.35448 22.67723"/>
<g clip-path="url(#clip_7)">
<rect transform="matrix(1,0,0,-1,-153,736)" fill="url(#pattern_8)" x="200.45479" y="711.12429" width="23.077836" height="23.076966"/>
</g>
<path transform="matrix(1.00009,0,0,-1.00005,2.295494,24.676434)" stroke-width=".39851" stroke-linecap="butt" stroke-miterlimit="10" stroke-linejoin="miter" fill="none" stroke="#000000" d="M45.35448 0V22.67723H68.03172V0ZM68.03172 22.67723"/>
<path transform="matrix(1.00009,0,0,-1.00005,2.295494,24.676434)" stroke-width=".79703" stroke-linecap="butt" stroke-miterlimit="10" stroke-linejoin="miter" fill="none" stroke="#000000" d="M0 0V22.67723H68.03172V0ZM68.03172 22.67723"/>
<path transform="matrix(1.00009,0,0,-1.00005,2.295494,24.676434)" stroke-width=".39851" stroke-linecap="butt" stroke-miterlimit="10" stroke-linejoin="miter" fill="none" stroke="#000000" d="M22.67723 0V22.67723"/>
<path transform="matrix(1.00009,0,0,-1.00005,2.295494,24.676434)" stroke-width=".39851" stroke-linecap="butt" stroke-miterlimit="10" stroke-linejoin="miter" fill="none" stroke="#000000" d="M45.35448 0V22.67723"/>
<use data-text="&#x2022;" xlink:href="#font_10_1" transform="matrix(9.963496,0,0,-9.963098,26.627686,35.961999)"/>
<use data-text="&#x2022;" xlink:href="#font_10_1" transform="matrix(9.963496,0,0,-9.963098,33.821329,35.961999)"/>
<use data-text="&#x2022;" xlink:href="#font_10_1" transform="matrix(9.963496,0,0,-9.963098,41.014978,35.961999)"/>
<g clip-path="url(#clip_11)">
<rect transform="matrix(1,0,0,-1,-153,736)" fill="url(#pattern_12)" x="257.153" y="711.12429" width="23.07782" height="23.076966"/>
</g>
<path transform="matrix(1.00009,0,0,-1.00005,2.295494,24.676434)" stroke-width=".39851" stroke-linecap="butt" stroke-miterlimit="10" stroke-linejoin="miter" fill="none" stroke="#000000" d="M102.04762 0V22.67723H124.72485V0ZM124.72485 22.67723"/>
<path transform="matrix(1.00009,0,0,-1.00005,2.295494,24.676434)" d="M124.72485 0V22.67723H170.07935V0ZM170.07935 22.67723" fill="#cccccc"/>
<path transform="matrix(1.00009,0,0,-1.00005,2.295494,24.676434)" stroke-width=".49814" stroke-linecap="butt" stroke-miterlimit="10" stroke-linejoin="miter" fill="none" stroke="#a6a6a6" d="M147.4021 2.72116V19.95607"/>
<path transform="matrix(1.00009,0,0,-1.00005,2.295494,24.676434)" stroke-width=".79703" stroke-linecap="butt" stroke-miterlimit="10" stroke-linejoin="miter" fill="none" stroke="#000000" d="M102.04762 0V22.67723H170.07935V0ZM170.07935 22.67723"/>
<path transform="matrix(1.00009,0,0,-1.00005,2.295494,24.676434)" stroke-width=".39851" stroke-linecap="butt" stroke-miterlimit="10" stroke-linejoin="miter" fill="none" stroke="#000000" d="M124.72485 0V22.67723"/>
<use data-text="&#x2022;" xlink:href="#font_10_1" transform="matrix(9.963496,0,0,-9.963098,130.151,35.961999)"/>
<use data-text="&#x2014;" xlink:href="#font_14_283" transform="matrix(9.963496,0,0,-9.963098,135.13245,35.961999)"/>
<path transform="matrix(1.00009,0,0,-1.00005,2.295494,24.676434)" d="M204.09526 0V22.67723H249.44974V0ZM249.44974 22.67723" fill="#cccccc"/>
<path transform="matrix(1.00009,0,0,-1.00005,2.295494,24.676434)" stroke-width=".49814" stroke-linecap="butt" stroke-miterlimit="10" stroke-linejoin="miter" fill="none" stroke="#a6a6a6" d="M226.77249 2.72116V19.95607"/>
<g clip-path="url(#clip_15)">
<rect transform="matrix(1,0,0,-1,-153,736)" fill="url(#pattern_16)" x="404.5684" y="711.12429" width="23.07788" height="23.076966"/>
</g>
<path transform="matrix(1.00009,0,0,-1.00005,2.295494,24.676434)" stroke-width=".39851" stroke-linecap="butt" stroke-miterlimit="10" stroke-linejoin="miter" fill="none" stroke="#000000" d="M249.44974 0V22.67723H272.12699V0ZM272.12699 22.67723"/>
<path transform="matrix(1.00009,0,0,-1.00005,2.295494,24.676434)" stroke-width=".79703" stroke-linecap="butt" stroke-miterlimit="10" stroke-linejoin="miter" fill="none" stroke="#000000" d="M204.09526 0V22.67723H272.12699V0ZM272.12699 22.67723"/>
<path transform="matrix(1.00009,0,0,-1.00005,2.295494,24.676434)" stroke-width=".39851" stroke-linecap="butt" stroke-miterlimit="10" stroke-linejoin="miter" fill="none" stroke="#000000" d="M249.44974 0V22.67723"/>
<use data-text="&#x2014;" xlink:href="#font_14_283" transform="matrix(9.963496,0,0,-9.963098,232.20819,35.961999)"/>
<use data-text="&#x2022;" xlink:href="#font_10_1" transform="matrix(9.963496,0,0,-9.963098,243.66622,35.961999)"/>
</svg>
