<svg xmlns="http://www.w3.org/2000/svg" xmlns:xlink="http://www.w3.org/1999/xlink" xmlns:inkscape="http://www.inkscape.org/namespaces/inkscape" version="1.1" width="377" height="79" viewBox="0 0 377 79">
<defs>
<path id="font_1_82" d="M.4189911 0V.0309906H.3869934C.29699708 .0309906 .2939911 .041992189 .2939911 .07902527V.64012148C.2939911 .6640167 .2939911 .6660156 .2709961 .6660156 .20899964 .60227969 .12098694 .60227969 .08898926 .60227969V.57128909C.10899353 .57128909 .16799927 .57128909 .21998596 .5972748V.07902527C.21998596 .042999269 .21699524 .0309906 .1269989 .0309906H.09498596V0C.12998963 .0029907227 .21699524 .0029907227 .25698854 .0029907227 .29699708 .0029907227 .38398744 .0029907227 .4189911 0Z"/>
<path id="font_1_107" d="M.44898988 .17396546H.42399598C.4189911 .14398194 .4119873 .099990848 .4019928 .084991458 .394989 .07699585 .32899476 .07699585 .30699159 .07699585H.1269989L.23298645 .17996216C.3889923 .31803895 .44898988 .37210084 .44898988 .47216798 .44898988 .5860901 .35899354 .6660156 .23699951 .6660156 .12399292 .6660156 .049987794 .57411196 .049987794 .48516847 .049987794 .4291687 .099990848 .4291687 .102996829 .4291687 .11999512 .4291687 .15499878 .44117738 .15499878 .48217774 .15499878 .5081787 .13699341 .5341797 .101989749 .5341797 .09399414 .5341797 .09199524 .5341797 .08898926 .5331726 .11199951 .59806826 .1659851 .63500979 .22399903 .63500979 .31498719 .63500979 .35798646 .5541382 .35798646 .47216798 .35798646 .39196778 .30799867 .31297303 .25299073 .25097657L.06098938 .036987306C.049987794 .025985718 .049987794 .023986817 .049987794 0H.42099L.44898988 .17396546Z"/>
<path id="font_1_106" d="M.45700074 .17037964C.45700074 .252594 .3939972 .33088685 .2899933 .35191346 .37199403 .37893678 .42999269 .4490509 .42999269 .52809146 .42999269 .6100464 .34199525 .6660156 .24598694 .6660156 .14498902 .6660156 .068984989 .60606387 .068984989 .53009036 .068984989 .49710084 .09098816 .47808839 .11999512 .47808839 .15098572 .47808839 .17098999 .50009158 .17098999 .5290985 .17098999 .57910159 .12399292 .57910159 .10899353 .57910159 .13999939 .62802127 .20599365 .64100649 .24198914 .64100649 .2829895 .64100649 .33799745 .6190338 .33799745 .5290985 .33799745 .51708987 .33599855 .45906068 .30999757 .4149933 .27999879 .36691285 .24598694 .36390687 .22099304 .36291505 .21299744 .36190797 .18899536 .35990907 .18199158 .35990907 .17399597 .35890199 .16699219 .35791017 .16699219 .3479004 .16699219 .33691407 .17399597 .33691407 .19099427 .33691407H.23498535C.31698609 .33691407 .35398866 .2686615 .35398866 .17037964 .35398866 .034469606 .2849884 .0055389406 .24099732 .0055389406 .19799805 .0055389406 .12298584 .022491456 .08799744 .08137512 .12298584 .07637024 .1539917 .09837341 .1539917 .1363678 .1539917 .17237854 .1269989 .19238281 .09799194 .19238281 .07398987 .19238281 .041992189 .17837525 .041992189 .1343689 .041992189 .043441774 .1349945-.022460938 .24398804-.022460938 .3659973-.022460938 .45700074 .06838989 .45700074 .17037964Z"/>
<path id="font_1_57" d="M.47099305 .16503906V.19602967H.37098695V.6507721C.37098695 .6707611 .37098695 .6767578 .35499574 .6767578 .34599305 .6767578 .34298707 .6767578 .33499146 .6647644L.027999878 .19602967V.16503906H.2939911V.07800293C.2939911 .041992189 .2919922 .0309906 .21798706 .0309906H.19699097V0C.23799134 .0029907227 .2899933 .0029907227 .33198548 .0029907227 .37399293 .0029907227 .4269867 .0029907227 .46798707 0V.0309906H.44699098C.37298585 .0309906 .37098695 .041992189 .37098695 .07800293V.16503906H.47099305M.2999878 .19602967H.055999757L.2999878 .56881716V.19602967Z"/>
</defs>
<path transform="matrix(1.00002,0,0,-1.00003,-34.397066,39.23773)" d="M48.49725 0C48.49725 3.30138 45.82104 5.97758 42.51967 5.97758 39.21829 5.97758 36.54208 3.30138 36.54208 0 36.54208-3.30138 39.21829-5.97758 42.51967-5.97758 45.82104-5.97758 48.49725-3.30138 48.49725 0ZM42.51967 0" fill="#ffffff"/>
<path transform="matrix(1.00002,0,0,-1.00003,-34.397066,39.23773)" stroke-width=".49814" stroke-linecap="butt" stroke-miterlimit="10" stroke-linejoin="miter" fill="none" stroke="#000000" d="M48.49725 0C48.49725 3.30138 45.82104 5.97758 42.51967 5.97758 39.21829 5.97758 36.54208 3.30138 36.54208 0 36.54208-3.30138 39.21829-5.97758 42.51967-5.97758 45.82104-5.97758 48.49725-3.30138 48.49725 0ZM42.51967 0"/>
<use data-text="1" xlink:href="#font_1_82" transform="matrix(9.962799,0,0,-9.962899,5.6317369,55.370214)"/>
<path transform="matrix(1.00002,0,0,-1.00003,-34.397066,39.23773)" d="M69.75708 0C69.75708 3.30138 67.08087 5.97758 63.7795 5.97758 60.47812 5.97758 57.80191 3.30138 57.80191 0 57.80191-3.30138 60.47812-5.97758 63.7795-5.97758 67.08087-5.97758 69.75708-3.30138 69.75708 0ZM63.7795 0" fill="#ffffff"/>
<path transform="matrix(1.00002,0,0,-1.00003,-34.397066,39.23773)" stroke-width=".49814" stroke-linecap="butt" stroke-miterlimit="10" stroke-linejoin="miter" fill="none" stroke="#000000" d="M69.75708 0C69.75708 3.30138 67.08087 5.97758 63.7795 5.97758 60.47812 5.97758 57.80191 3.30138 57.80191 0 57.80191-3.30138 60.47812-5.97758 63.7795-5.97758 67.08087-5.97758 69.75708-3.30138 69.75708 0ZM63.7795 0"/>
<use data-text="2" xlink:href="#font_1_107" transform="matrix(9.962799,0,0,-9.962899,26.891163,55.370214)"/>
<path transform="matrix(1.00002,0,0,-1.00003,-34.397066,39.23773)" d="M91.01692 0C91.01692 3.30138 88.34071 5.97758 85.03934 5.97758 81.73798 5.97758 79.06175 3.30138 79.06175 0 79.06175-3.30138 81.73798-5.97758 85.03934-5.97758 88.34071-5.97758 91.01692-3.30138 91.01692 0ZM85.03934 0" fill="#ffffff"/>
<path transform="matrix(1.00002,0,0,-1.00003,-34.397066,39.23773)" stroke-width=".49814" stroke-linecap="butt" stroke-miterlimit="10" stroke-linejoin="miter" fill="none" stroke="#000000" d="M91.01692 0C91.01692 3.30138 88.34071 5.97758 85.03934 5.97758 81.73798 5.97758 79.06175 3.30138 79.06175 0 79.06175-3.30138 81.73798-5.97758 85.03934-5.97758 88.34071-5.97758 91.01692-3.30138 91.01692 0ZM85.03934 0"/>
<use data-text="3" xlink:href="#font_1_106" transform="matrix(9.962799,0,0,-9.962899,48.15059,55.370214)"/>
<path transform="matrix(1.00002,0,0,-1.00003,-34.397066,39.23773)" d="M112.27675 0C112.27675 3.30138 109.60054 5.97758 106.29916 5.97758 102.9978 5.97758 100.32158 3.30138 100.32158 0 100.32158-3.30138 102.9978-5.97758 106.29916-5.97758 109.60054-5.97758 112.27675-3.30138 112.27675 0ZM106.29916 0" fill="#ffffff"/>
<path transform="matrix(1.00002,0,0,-1.00003,-34.397066,39.23773)" stroke-width=".49814" stroke-linecap="butt" stroke-miterlimit="10" stroke-linejoin="miter" fill="none" stroke="#000000" d="M112.27675 0C112.27675 3.30138 109.60054 5.97758 106.29916 5.97758 102.9978 5.97758 100.32158 3.30138 100.32158 0 100.32158-3.30138 102.9978-5.97758 106.29916-5.97758 109.60054-5.97758 112.27675-3.30138 112.27675 0ZM106.29916 0"/>
<use data-text="4" xlink:href="#font_1_57" transform="matrix(9.962799,0,0,-9.962899,69.41101,55.480218)"/>
<path transform="matrix(1.00002,0,0,-1.00003,-34.397066,39.23773)" stroke-width=".79703" stroke-linecap="butt" stroke-miterlimit="10" stroke-linejoin="miter" fill="none" stroke="#000000" d="M48.49594 0H57.80035"/>
<path transform="matrix(1.00002,0,0,-1.00003,-34.397066,39.23773)" stroke-width=".79703" stroke-linecap="butt" stroke-miterlimit="10" stroke-linejoin="miter" fill="none" stroke="#000000" d="M69.7552 0H79.05963"/>
<path transform="matrix(1.00002,0,0,-1.00003,-34.397066,39.23773)" stroke-width=".79703" stroke-linecap="butt" stroke-miterlimit="10" stroke-linejoin="miter" fill="none" stroke="#000000" d="M91.01448 0H100.3189"/>
<path transform="matrix(1.00002,0,0,-1.00003,-34.397066,39.23773)" stroke-width=".39851" stroke-linecap="butt" stroke-miterlimit="10" stroke-linejoin="miter" fill="none" stroke="#000000" d="M66.76595 5.17679C73.89131 17.51775 91.19524 26.15645 103.30734 5.17633"/>
<path transform="matrix(1.00002,0,0,-1.00003,-34.397066,39.23773)" stroke-width=".39851" stroke-linecap="butt" stroke-miterlimit="10" stroke-linejoin="miter" fill="none" stroke="#000000" d="M45.50687-5.1766C56.77727-24.69751 84.14838-38.36201 103.30743-5.17642"/>
<path transform="matrix(1.00002,0,0,-1.00003,-34.397066,39.23773)" d="M154.79642 0C154.79642 3.30138 152.1202 5.97758 148.81884 5.97758 145.51746 5.97758 142.84125 3.30138 142.84125 0 142.84125-3.30138 145.51746-5.97758 148.81884-5.97758 152.1202-5.97758 154.79642-3.30138 154.79642 0ZM148.81884 0" fill="#ffffff"/>
<path transform="matrix(1.00002,0,0,-1.00003,-34.397066,39.23773)" stroke-width=".49814" stroke-linecap="butt" stroke-miterlimit="10" stroke-linejoin="miter" fill="none" stroke="#000000" d="M154.79642 0C154.79642 3.30138 152.1202 5.97758 148.81884 5.97758 145.51746 5.97758 142.84125 3.30138 142.84125 0 142.84125-3.30138 145.51746-5.97758 148.81884-5.97758 152.1202-5.97758 154.79642-3.30138 154.79642 0ZM148.81884 0"/>
<use data-text="1" xlink:href="#font_1_82" transform="matrix(9.962799,0,0,-9.962899,99.94162,42.55583)"/>
<path transform="matrix(1.00002,0,0,-1.00003,-34.397066,39.23773)" d="M154.79642 31.88974C154.79642 35.19112 152.1202 37.86732 148.81884 37.86732 145.51746 37.86732 142.84125 35.19112 142.84125 31.88974 142.84125 28.58838 145.51746 25.91216 148.81884 25.91216 152.1202 25.91216 154.79642 28.58838 154.79642 31.88974ZM148.81884 31.88974" fill="#ffffff"/>
<path transform="matrix(1.00002,0,0,-1.00003,-34.397066,39.23773)" stroke-width=".49814" stroke-linecap="butt" stroke-miterlimit="10" stroke-linejoin="miter" fill="none" stroke="#000000" d="M154.79642 31.88974C154.79642 35.19112 152.1202 37.86732 148.81884 37.86732 145.51746 37.86732 142.84125 35.19112 142.84125 31.88974 142.84125 28.58838 145.51746 25.91216 148.81884 25.91216 152.1202 25.91216 154.79642 28.58838 154.79642 31.88974ZM148.81884 31.88974"/>
<use data-text="2" xlink:href="#font_1_107" transform="matrix(9.962799,0,0,-9.962899,99.94162,10.665871)"/>
<path transform="matrix(1.00002,0,0,-1.00003,-34.397066,39.23773)" d="M186.68618 31.88974C186.68618 35.19112 184.00995 37.86732 180.70859 37.86732 177.40721 37.86732 174.731 35.19112 174.731 31.88974 174.731 28.58838 177.40721 25.91216 180.70859 25.91216 184.00995 25.91216 186.68618 28.58838 186.68618 31.88974ZM180.70859 31.88974" fill="#ffffff"/>
<path transform="matrix(1.00002,0,0,-1.00003,-34.397066,39.23773)" stroke-width=".49814" stroke-linecap="butt" stroke-miterlimit="10" stroke-linejoin="miter" fill="none" stroke="#000000" d="M186.68618 31.88974C186.68618 35.19112 184.00995 37.86732 180.70859 37.86732 177.40721 37.86732 174.731 35.19112 174.731 31.88974 174.731 28.58838 177.40721 25.91216 180.70859 25.91216 184.00995 25.91216 186.68618 28.58838 186.68618 31.88974ZM180.70859 31.88974"/>
<use data-text="3" xlink:href="#font_1_106" transform="matrix(9.962799,0,0,-9.962899,155.80776,10.555866)"/>
<path transform="matrix(1.00002,0,0,-1.00003,-34.397066,39.23773)" d="M186.68618 0C186.68618 3.30138 184.00995 5.97758 180.70859 5.97758 177.40721 5.97758 174.731 3.30138 174.731 0 174.731-3.30138 177.40721-5.97758 180.70859-5.97758 184.00995-5.97758 186.68618-3.30138 186.68618 0ZM180.70859 0" fill="#ffffff"/>
<path transform="matrix(1.00002,0,0,-1.00003,-34.397066,39.23773)" stroke-width=".49814" stroke-linecap="butt" stroke-miterlimit="10" stroke-linejoin="miter" fill="none" stroke="#000000" d="M186.68618 0C186.68618 3.30138 184.00995 5.97758 180.70859 5.97758 177.40721 5.97758 174.731 3.30138 174.731 0 174.731-3.30138 177.40721-5.97758 180.70859-5.97758 184.00995-5.97758 186.68618-3.30138 186.68618 0ZM180.70859 0"/>
<use data-text="4" xlink:href="#font_1_57" transform="matrix(9.962799,0,0,-9.962899,155.80776,42.60983)"/>
<path transform="matrix(1.00002,0,0,-1.00003,-34.397066,39.23773)" stroke-width=".79703" stroke-linecap="butt" stroke-miterlimit="10" stroke-linejoin="miter" fill="none" stroke="#000000" d="M148.81385 5.97734 148.81421 25.91154"/>
<path transform="matrix(1.00002,0,0,-1.00003,-34.397066,39.23773)" stroke-width=".79703" stroke-linecap="butt" stroke-miterlimit="10" stroke-linejoin="miter" fill="none" stroke="#000000" d="M154.79227 31.88887H174.72632"/>
<path transform="matrix(1.00002,0,0,-1.00003,-34.397066,39.23773)" stroke-width=".79703" stroke-linecap="butt" stroke-miterlimit="10" stroke-linejoin="miter" fill="none" stroke="#000000" d="M180.70256 25.91154 180.70293 5.97734"/>
<path transform="matrix(1.00002,0,0,-1.00003,-34.397066,39.23773)" stroke-width=".79703" stroke-linecap="butt" stroke-miterlimit="10" stroke-linejoin="miter" fill="none" stroke="#000000" d="M174.72632 0H154.79227"/>
<path transform="matrix(1.00002,0,0,-1.00003,-34.397066,39.23773)" stroke-width=".79703" stroke-linecap="butt" stroke-miterlimit="10" stroke-linejoin="miter" fill="none" stroke="#000000" d="M153.04106 27.66183 176.47689 4.22623"/>
<path transform="matrix(1.00002,0,0,-1.00003,-34.397066,39.23773)" d="M239.83574-31.88974C239.83574-28.58838 237.15953-25.91216 233.85817-25.91216 230.5568-25.91216 227.88059-28.58838 227.88059-31.88974 227.88059-35.19112 230.5568-37.86732 233.85817-37.86732 237.15953-37.86732 239.83574-35.19112 239.83574-31.88974ZM233.85817-31.88974" fill="#ffffff"/>
<path transform="matrix(1.00002,0,0,-1.00003,-34.397066,39.23773)" stroke-width=".49814" stroke-linecap="butt" stroke-miterlimit="10" stroke-linejoin="miter" fill="none" stroke="#000000" d="M239.83574-31.88974C239.83574-28.58838 237.15953-25.91216 233.85817-25.91216 230.5568-25.91216 227.88059-28.58838 227.88059-31.88974 227.88059-35.19112 230.5568-37.86732 233.85817-37.86732 237.15953-37.86732 239.83574-35.19112 239.83574-31.88974ZM233.85817-31.88974"/>
<use data-text="1" xlink:href="#font_1_82" transform="matrix(9.962799,0,0,-9.962899,184.98033,74.444789)"/>
<path transform="matrix(1.00002,0,0,-1.00003,-34.397066,39.23773)" d="M303.61528 0C303.61528 3.30138 300.93904 5.97758 297.63768 5.97758 294.3363 5.97758 291.6601 3.30138 291.6601 0 291.6601-3.30138 294.3363-5.97758 297.63768-5.97758 300.93904-5.97758 303.61528-3.30138 303.61528 0ZM297.63768 0" fill="#ffffff"/>
<path transform="matrix(1.00002,0,0,-1.00003,-34.397066,39.23773)" stroke-width=".49814" stroke-linecap="butt" stroke-miterlimit="10" stroke-linejoin="miter" fill="none" stroke="#000000" d="M303.61528 0C303.61528 3.30138 300.93904 5.97758 297.63768 5.97758 294.3363 5.97758 291.6601 3.30138 291.6601 0 291.6601-3.30138 294.3363-5.97758 297.63768-5.97758 300.93904-5.97758 303.61528-3.30138 303.61528 0ZM297.63768 0"/>
<use data-text="2" xlink:href="#font_1_107" transform="matrix(9.962799,0,0,-9.962899,272.7361,42.55583)"/>
<path transform="matrix(1.00002,0,0,-1.00003,-34.397066,39.23773)" d="M239.83574 0C239.83574 3.30138 237.15953 5.97758 233.85817 5.97758 230.5568 5.97758 227.88059 3.30138 227.88059 0 227.88059-3.30138 230.5568-5.97758 233.85817-5.97758 237.15953-5.97758 239.83574-3.30138 239.83574 0ZM233.85817 0" fill="#ffffff"/>
<path transform="matrix(1.00002,0,0,-1.00003,-34.397066,39.23773)" stroke-width=".49814" stroke-linecap="butt" stroke-miterlimit="10" stroke-linejoin="miter" fill="none" stroke="#000000" d="M239.83574 0C239.83574 3.30138 237.15953 5.97758 233.85817 5.97758 230.5568 5.97758 227.88059 3.30138 227.88059 0 227.88059-3.30138 230.5568-5.97758 233.85817-5.97758 237.15953-5.97758 239.83574-3.30138 239.83574 0ZM233.85817 0"/>
<use data-text="4" xlink:href="#font_1_57" transform="matrix(9.962799,0,0,-9.962899,184.98033,42.60983)"/>
<path transform="matrix(1.00002,0,0,-1.00003,-34.397066,39.23773)" d="M239.83574 31.88974C239.83574 35.19112 237.15953 37.86732 233.85817 37.86732 230.5568 37.86732 227.88059 35.19112 227.88059 31.88974 227.88059 28.58838 230.5568 25.91216 233.85817 25.91216 237.15953 25.91216 239.83574 28.58838 239.83574 31.88974ZM233.85817 31.88974" fill="#ffffff"/>
<path transform="matrix(1.00002,0,0,-1.00003,-34.397066,39.23773)" stroke-width=".49814" stroke-linecap="butt" stroke-miterlimit="10" stroke-linejoin="miter" fill="none" stroke="#000000" d="M239.83574 31.88974C239.83574 35.19112 237.15953 37.86732 233.85817 37.86732 230.5568 37.86732 227.88059 35.19112 227.88059 31.88974 227.88059 28.58838 230.5568 25.91216 233.85817 25.91216 237.15953 25.91216 239.83574 28.58838 239.83574 31.88974ZM233.85817 31.88974"/>
<use data-text="3" xlink:href="#font_1_106" transform="matrix(9.962799,0,0,-9.962899,184.98033,10.555866)"/>
<path transform="matrix(1.00002,0,0,-1.00003,-34.397066,39.23773)" stroke-width=".79703" stroke-linecap="butt" stroke-miterlimit="10" stroke-linejoin="miter" fill="none" stroke="#000000" d="M233.85027-5.97734 233.85073-25.91154"/>
<path transform="matrix(1.00002,0,0,-1.00003,-34.397066,39.23773)" stroke-width=".79703" stroke-linecap="butt" stroke-miterlimit="10" stroke-linejoin="miter" fill="none" stroke="#000000" d="M239.1978-29.21556 292.28355-2.67276"/>
<path transform="matrix(1.00002,0,0,-1.00003,-34.397066,39.23773)" stroke-width=".79703" stroke-linecap="butt" stroke-miterlimit="10" stroke-linejoin="miter" fill="none" stroke="#000000" d="M292.28346 2.67267 239.19789 29.21565"/>
<path transform="matrix(1.00002,0,0,-1.00003,-34.397066,39.23773)" stroke-width=".79703" stroke-linecap="butt" stroke-miterlimit="10" stroke-linejoin="miter" fill="none" stroke="#000000" d="M233.85027 25.91154 233.85073 5.97734"/>
<path transform="matrix(1.00002,0,0,-1.00003,-34.397066,39.23773)" stroke-width=".79703" stroke-linecap="butt" stroke-miterlimit="10" stroke-linejoin="miter" fill="none" stroke="#000000" d="M291.65229 0H239.82933"/>
<path transform="matrix(1.00002,0,0,-1.00003,-34.397066,39.23773)" d="M346.13493 0C346.13493 3.30138 343.4587 5.97758 340.15733 5.97758 336.85597 5.97758 334.17976 3.30138 334.17976 0 334.17976-3.30138 336.85597-5.97758 340.15733-5.97758 343.4587-5.97758 346.13493-3.30138 346.13493 0ZM340.15733 0" fill="#ffffff"/>
<path transform="matrix(1.00002,0,0,-1.00003,-34.397066,39.23773)" stroke-width=".49814" stroke-linecap="butt" stroke-miterlimit="10" stroke-linejoin="miter" fill="none" stroke="#000000" d="M346.13493 0C346.13493 3.30138 343.4587 5.97758 340.15733 5.97758 336.85597 5.97758 334.17976 3.30138 334.17976 0 334.17976-3.30138 336.85597-5.97758 340.15733-5.97758 343.4587-5.97758 346.13493-3.30138 346.13493 0ZM340.15733 0"/>
<use data-text="3" xlink:href="#font_1_106" transform="matrix(9.962799,0,0,-9.962899,303.2677,55.370214)"/>
<path transform="matrix(1.00002,0,0,-1.00003,-34.397066,39.23773)" d="M367.39476 0C367.39476 3.30138 364.71855 5.97758 361.41719 5.97758 358.1158 5.97758 355.43959 3.30138 355.43959 0 355.43959-3.30138 358.1158-5.97758 361.41719-5.97758 364.71855-5.97758 367.39476-3.30138 367.39476 0ZM361.41719 0" fill="#ffffff"/>
<path transform="matrix(1.00002,0,0,-1.00003,-34.397066,39.23773)" stroke-width=".49814" stroke-linecap="butt" stroke-miterlimit="10" stroke-linejoin="miter" fill="none" stroke="#000000" d="M367.39476 0C367.39476 3.30138 364.71855 5.97758 361.41719 5.97758 358.1158 5.97758 355.43959 3.30138 355.43959 0 355.43959-3.30138 358.1158-5.97758 361.41719-5.97758 364.71855-5.97758 367.39476-3.30138 367.39476 0ZM361.41719 0"/>
<use data-text="2" xlink:href="#font_1_107" transform="matrix(9.962799,0,0,-9.962899,324.5271,55.370214)"/>
<path transform="matrix(1.00002,0,0,-1.00003,-34.397066,39.23773)" d="M388.6546 0C388.6546 3.30138 385.97837 5.97758 382.677 5.97758 379.37565 5.97758 376.69944 3.30138 376.69944 0 376.69944-3.30138 379.37565-5.97758 382.677-5.97758 385.97837-5.97758 388.6546-3.30138 388.6546 0ZM382.677 0" fill="#ffffff"/>
<path transform="matrix(1.00002,0,0,-1.00003,-34.397066,39.23773)" stroke-width=".49814" stroke-linecap="butt" stroke-miterlimit="10" stroke-linejoin="miter" fill="none" stroke="#000000" d="M388.6546 0C388.6546 3.30138 385.97837 5.97758 382.677 5.97758 379.37565 5.97758 376.69944 3.30138 376.69944 0 376.69944-3.30138 379.37565-5.97758 382.677-5.97758 385.97837-5.97758 388.6546-3.30138 388.6546 0ZM382.677 0"/>
<use data-text="4" xlink:href="#font_1_57" transform="matrix(9.962799,0,0,-9.962899,345.7865,55.480218)"/>
<path transform="matrix(1.00002,0,0,-1.00003,-34.397066,39.23773)" d="M409.9144 0C409.9144 3.30138 407.2382 5.97758 403.93684 5.97758 400.63545 5.97758 397.95924 3.30138 397.95924 0 397.95924-3.30138 400.63545-5.97758 403.93684-5.97758 407.2382-5.97758 409.9144-3.30138 409.9144 0ZM403.93684 0" fill="#ffffff"/>
<path transform="matrix(1.00002,0,0,-1.00003,-34.397066,39.23773)" stroke-width=".49814" stroke-linecap="butt" stroke-miterlimit="10" stroke-linejoin="miter" fill="none" stroke="#000000" d="M409.9144 0C409.9144 3.30138 407.2382 5.97758 403.93684 5.97758 400.63545 5.97758 397.95924 3.30138 397.95924 0 397.95924-3.30138 400.63545-5.97758 403.93684-5.97758 407.2382-5.97758 409.9144-3.30138 409.9144 0ZM403.93684 0"/>
<use data-text="1" xlink:href="#font_1_82" transform="matrix(9.962799,0,0,-9.962899,367.04597,55.370214)"/>
<path transform="matrix(1.00002,0,0,-1.00003,-34.397066,39.23773)" stroke-width=".79703" stroke-linecap="butt" stroke-miterlimit="10" stroke-linejoin="miter" fill="none" stroke="#000000" d="M397.9486 0H388.6442"/>
<path transform="matrix(1.00002,0,0,-1.00003,-34.397066,39.23773)" stroke-width=".79703" stroke-linecap="butt" stroke-miterlimit="10" stroke-linejoin="miter" fill="none" stroke="#000000" d="M376.68937 0H367.38493"/>
<path transform="matrix(1.00002,0,0,-1.00003,-34.397066,39.23773)" stroke-width=".79703" stroke-linecap="butt" stroke-miterlimit="10" stroke-linejoin="miter" fill="none" stroke="#000000" d="M355.43009 0H346.12568"/>
<path transform="matrix(1.00002,0,0,-1.00003,-34.397066,39.23773)" stroke-width=".39851" stroke-linecap="butt" stroke-miterlimit="10" stroke-linejoin="miter" fill="none" stroke="#000000" d="M364.39396 5.1778C371.52104 17.51775 388.82496 26.15645 400.93589 5.17561"/>
<path transform="matrix(1.00002,0,0,-1.00003,-34.397066,39.23773)" stroke-width=".39851" stroke-linecap="butt" stroke-miterlimit="10" stroke-linejoin="miter" fill="none" stroke="#000000" d="M343.13478 5.1778C350.26179 17.51775 367.5657 26.15645 379.6766 5.1757"/>
</svg>
