<svg xmlns="http://www.w3.org/2000/svg" xmlns:xlink="http://www.w3.org/1999/xlink" xmlns:inkscape="http://www.inkscape.org/namespaces/inkscape" version="1.1" width="266" height="220" viewBox="0 0 266 220">
<defs>
<path id="font_1_1" d="M.33399964 .30233766C.33999635 .32835389 .36299134 .42037965 .43299867 .42037965 .43798829 .42037965 .46199037 .42037965 .48298646 .40734864 .45498658 .402359 .43499757 .37734986 .43499757 .35334779 .43499757 .33735658 .44599916 .31835938 .47299195 .31835938 .49499513 .31835938 .5269928 .3363495 .5269928 .37635804 .5269928 .42837525 .46798707 .4423828 .43399049 .4423828 .37599183 .4423828 .34098817 .38935853 .32899476 .36634828 .3039856 .43237306 .25 .4423828 .22099304 .4423828 .116989139 .4423828 .05999756 .3133545 .05999756 .28834535 .05999756 .27833558 .069992069 .27833558 .07199097 .27833558 .07998657 .27833558 .08299255 .28033448 .084991458 .28933717 .11898804 .39535523 .18499756 .42037965 .21899414 .42037965 .23799134 .42037965 .272995 .4113617 .272995 .35334779 .272995 .32235719 .2559967 .25532533 .21899414 .11528015 .20298767 .053268434 .16799927 .011245728 .12399292 .011245728 .117996219 .011245728 .09498596 .011245728 .07398987 .024276734 .09899902 .029266358 .12098694 .05027771 .12098694 .07827759 .12098694 .105270389 .09899902 .11328125 .083999637 .11328125 .053985597 .11328125 .0289917 .08728027 .0289917 .055267335 .0289917 .009246826 .07899475-.0107421879 .12298584-.0107421879 .18899536-.0107421879 .22499085 .059280397 .22799683 .0652771 .23999024 .028274537 .27598573-.0107421879 .33599855-.0107421879 .43899537-.0107421879 .49598695 .118270877 .49598695 .14328003 .49598695 .1532898 .4869995 .1532898 .48399354 .1532898 .47499085 .1532898 .47299195 .14929199 .47099305 .14228821 .43798829 .03527832 .36999513 .011245728 .33799745 .011245728 .29899598 .011245728 .2829895 .043273927 .2829895 .07727051 .2829895 .09927368 .2889862 .121276859 .2999878 .16529846L.33399964 .30233766Z"/>
<path id="font_1_2" d="M.48599244 .38136292C.48999024 .39537049 .48999024 .39736939 .48999024 .40437318 .48999024 .42237855 .47599793 .43138124 .46099855 .43138124 .45098878 .43138124 .43499757 .42536927 .42599488 .41036988 .42399598 .405365 .41600038 .37435914 .4119873 .35635377 .40499879 .33035279 .397995 .30334474 .3919983 .27633668L.34700013 .09628296C.34298707 .08126831 .2999878 .011245728 .23399353 .011245728 .18299866 .011245728 .17199707 .055267335 .17199707 .0922699 .17199707 .1382904 .18899536 .20030213 .22299195 .28833009 .23899842 .3293457 .24299622 .3403473 .24299622 .36035157 .24299622 .405365 .21099854 .4423828 .16099549 .4423828 .06599426 .4423828 .0289917 .29733277 .0289917 .28833009 .0289917 .27833558 .038986207 .27833558 .040985109 .27833558 .050994874 .27833558 .051986696 .28033448 .056991579 .29634095 .083999637 .3903656 .12399292 .42037965 .1579895 .42037965 .1659851 .42037965 .18299866 .42037965 .18299866 .3883667 .18299866 .36335755 .17298889 .3373413 .1659851 .31834413 .12599182 .21231079 .10798645 .1552887 .10798645 .10827637 .10798645 .019256592 .17098999-.0107421879 .22999573-.0107421879 .2689972-.0107421879 .30299378 .0062561037 .33099366 .03425598 .31799317-.017745972 .30599977-.06674194 .2659912-.11973572 .23999024-.15385437 .20199585-.18309021 .1559906-.18309021 .14199829-.18309021 .09700012-.18005371 .07998657-.14074707 .09599304-.14074707 .10899353-.14074707 .12298584-.1287384 .1329956-.11973572 .14299011-.10673523 .14299011-.08773804 .14299011-.056747438 .115997318-.052734376 .10598755-.052734376 .08299255-.052734376 .049987794-.068740848 .049987794-.11773682 .049987794-.16796875 .09399414-.20507813 .1559906-.20507813 .25898744-.20507813 .3619995-.11373901 .3899994-.00074768069L.48599244 .38136292Z"/>
<path id="font_2_1" d="M.6589966 .23046875C.6759949 .23046875 .69400027 .23046875 .69400027 .25045777 .69400027 .27046205 .6759949 .27046205 .6589966 .27046205H.117996219C.100997928 .27046205 .08299255 .27046205 .08299255 .25045777 .08299255 .23046875 .100997928 .23046875 .117996219 .23046875H.6589966Z"/>
<path id="font_3_6" d="M.13198853 .327713V.35173036C.13198853 .6047821 .2559967 .64100649 .30699159 .64100649 .33099366 .64100649 .37298585 .634964 .394989 .6007538 .37998963 .6007538 .33999635 .6007538 .33999635 .5557556 .33999635 .524765 .3639984 .5097656 .38598634 .5097656 .4019928 .5097656 .43199159 .51875308 .43199159 .5577545 .43199159 .6178589 .3880005 .6660156 .30499269 .6660156 .1769867 .6660156 .041992189 .5367584 .041992189 .31570436 .041992189 .048553468 .1579895-.022460938 .25099183-.022460938 .3619995-.022460938 .45700074 .07156372 .45700074 .2036438 .45700074 .33070375 .36799623 .4267578 .25698854 .4267578 .18899536 .4267578 .1519928 .37573243 .13198853 .327713M.25099183 .0055389406C.18798828 .0055389406 .1579895 .06556702 .1519928 .080566409 .13398743 .127594 .13398743 .2076416 .13398743 .22564698 .13398743 .30369569 .1659851 .40374757 .2559967 .40374757 .27198792 .40374757 .31799317 .40374757 .34899903 .34172059 .36698915 .30470277 .36698915 .2536621 .36698915 .20463562 .36698915 .15661621 .36698915 .10658264 .34999085 .0705719 .31999208 .010528564 .27398683 .0055389406 .25099183 .0055389406Z"/>
<path id="font_3_5" d="M.2939911 .16503906V.07800293C.2939911 .041992189 .2919922 .0309906 .21798706 .0309906H.19699097V0C.23799134 .0029907227 .2899933 .0029907227 .33198548 .0029907227 .37399293 .0029907227 .4269867 .0029907227 .46798707 0V.0309906H.44699098C.37298585 .0309906 .37098695 .041992189 .37098695 .07800293V.16503906H.47099305V.19602967H.37098695V.65075686C.37098695 .67074587 .37098695 .6767578 .35499574 .6767578 .34599305 .6767578 .34298707 .6767578 .33499146 .66474917L.027999878 .19602967V.16503906H.2939911M.2999878 .19602967H.055999757L.2999878 .5688019V.19602967Z"/>
<path id="font_3_3" d="M.1269989 .07699585 .23298645 .18003845C.3889923 .31811524 .44898988 .3721466 .44898988 .47216798 .44898988 .5860901 .35899354 .6660156 .23699951 .6660156 .12399292 .6660156 .049987794 .57411196 .049987794 .48516847 .049987794 .4291687 .099990848 .4291687 .102996829 .4291687 .11999512 .4291687 .15499878 .44117738 .15499878 .48217774 .15499878 .5081787 .13699341 .5341797 .101989749 .5341797 .09399414 .5341797 .09199524 .5341797 .08898926 .5331726 .11199951 .59806826 .1659851 .63500979 .22399903 .63500979 .31498719 .63500979 .35798646 .5541382 .35798646 .47216798 .35798646 .39215089 .30799867 .31311036 .25299073 .25108338L.06098938 .036987306C.049987794 .025985718 .049987794 .023986817 .049987794 0H.42099L.44898988 .17404175H.42399598C.4189911 .14402771 .4119873 .1000061 .4019928 .084991458 .394989 .07699585 .32899476 .07699585 .30699159 .07699585H.1269989Z"/>
<path id="font_3_7" d="M.16299439 .4569702C.116989139 .486969 .11299133 .52098086 .11299133 .5379791 .11299133 .598999 .17799378 .64100649 .24899292 .64100649 .32199098 .64100649 .38598634 .58898928 .38598634 .51698306 .38598634 .45996095 .34700013 .4119568 .2869873 .37695313L.16299439 .4569702M.30899049 .36193849C.3809967 .3989563 .42999269 .45095826 .42999269 .51698306 .42999269 .6090088 .34098817 .6660156 .25 .6660156 .1499939 .6660156 .068984989 .59199526 .068984989 .49897767 .068984989 .4809723 .070999149 .43595887 .11299133 .38894654 .12399292 .37695313 .16099549 .35194398 .18598938 .33494569 .12799073 .30592347 .041992189 .24984741 .041992189 .15072632 .041992189 .04458618 .14399719-.022460938 .24899292-.022460938 .3619995-.022460938 .45700074 .06060791 .45700074 .16773987 .45700074 .20379639 .44599916 .24885559 .4079895 .2909088 .3889923 .31193543 .37298585 .3219452 .30899049 .36193849M.20899964 .3199463 .33198548 .24183655C.3600006 .2228241 .40699769 .19277954 .40699769 .13169861 .40699769 .05760193 .33198548 .0055389406 .25 .0055389406 .1639862 .0055389406 .09199524 .067611698 .09199524 .15072632 .09199524 .20880127 .12399292 .27288819 .20899964 .3199463Z"/>
<path id="font_3_2" d="M.2939911 .64004519C.2939911 .66400149 .2939911 .6660156 .2709961 .6660156 .20899964 .60227969 .12098694 .60227969 .08898926 .60227969V.57128909C.10899353 .57128909 .16799927 .57128909 .21998596 .5972748V.07902527C.21998596 .042999269 .21699524 .0309906 .1269989 .0309906H.09498596V0C.12998963 .0029907227 .21699524 .0029907227 .25698854 .0029907227 .29699708 .0029907227 .38398744 .0029907227 .4189911 0V.0309906H.3869934C.29699708 .0309906 .2939911 .041992189 .2939911 .07902527V.64004519Z"/>
<path id="font_3_1" d="M.45999146 .31976319C.45999146 .39982606 .45498658 .47988893 .41999818 .5539398 .37399293 .65000918 .2919922 .6660156 .25 .6660156 .18998719 .6660156 .116989139 .64001467 .07598877 .54693606 .04399109 .47789 .038986207 .39982606 .038986207 .31976319 .038986207 .24472046 .042999269 .15464783 .083999637 .07859802 .1269989-.0024719239 .19999695-.022460938 .24899292-.022460938 .30299378-.022460938 .3789978-.0014648438 .4229889 .09359741 .45498658 .16265869 .45999146 .2407074 .45999146 .31976319M.24899292-.00047302247C.20999146-.00047302247 .15098572 .024551392 .1329956 .12062073 .12199402 .18066406 .12199402 .2727356 .12199402 .3317871 .12199402 .39582826 .12199402 .46188355 .12998963 .5159149 .14898682 .63500979 .22399903 .64401248 .24899292 .64401248 .28199769 .64401248 .34799195 .6259918 .36698915 .52693179 .3769989 .47088624 .3769989 .39482118 .3769989 .3317871 .3769989 .25672914 .3769989 .18867493 .3659973 .12461853 .35099793 .029556275 .2939911-.00047302247 .24899292-.00047302247Z"/>
<path id="font_3_4" d="M.2899933 .35191346C.37199403 .37893678 .42999269 .4490509 .42999269 .52809146 .42999269 .6100464 .34199525 .6660156 .24598694 .6660156 .14498902 .6660156 .068984989 .60606387 .068984989 .53009036 .068984989 .49710084 .09098816 .47808839 .11999512 .47808839 .15098572 .47808839 .17098999 .50009158 .17098999 .5290985 .17098999 .57910159 .12399292 .57910159 .10899353 .57910159 .13999939 .62802127 .20599365 .64100649 .24198914 .64100649 .2829895 .64100649 .33799745 .6190338 .33799745 .5290985 .33799745 .51708987 .33599855 .45906068 .30999757 .4149933 .27999879 .36691285 .24598694 .36390687 .22099304 .36291505 .21299744 .36190797 .18899536 .35990907 .18199158 .35990907 .17399597 .35890199 .16699219 .35791017 .16699219 .3479004 .16699219 .33691407 .17399597 .33691407 .19099427 .33691407H.23498535C.31698609 .33691407 .35398866 .2686615 .35398866 .17037964 .35398866 .034469606 .2849884 .0055389406 .24099732 .0055389406 .19799805 .0055389406 .12298584 .022491456 .08799744 .08137512 .12298584 .07637024 .1539917 .09837341 .1539917 .1363678 .1539917 .17237854 .1269989 .19238281 .09799194 .19238281 .07398987 .19238281 .041992189 .17837525 .041992189 .1343689 .041992189 .043441774 .1349945-.022460938 .24398804-.022460938 .3659973-.022460938 .45700074 .06838989 .45700074 .17037964 .45700074 .252594 .3939972 .33088685 .2899933 .35191346Z"/>
</defs>
<path transform="matrix(1.00005,0,0,-1.00005,74.617038,110.04974)" stroke-width=".39851" stroke-linecap="butt" stroke-miterlimit="10" stroke-linejoin="miter" fill="none" stroke="#000000" d="M-68.03041 0H181.01593"/>
<path transform="matrix(1.00005,0,0,-1.00005,255.84127,110.04974)" stroke-width=".39851" stroke-linecap="round" stroke-linejoin="round" fill="none" stroke="#000000" d="M-2.07222 2.39102C-1.69363 .95639-.85 .27896 0 0-.85-.27896-1.69363-.95639-2.07222-2.39102"/>
<use data-text="x" xlink:href="#font_1_1" transform="matrix(9.963098,0,0,-9.963098,259.56028,112.194858)"/>
<path transform="matrix(1.00005,0,0,-1.00005,74.617038,110.04974)" stroke-width=".39851" stroke-linecap="butt" stroke-miterlimit="10" stroke-linejoin="miter" fill="none" stroke="#000000" d="M0-96.37775V95.97925"/>
<path transform="matrix(0,-1.00005,-1.00005,-0,74.617038,13.86644)" stroke-width=".39851" stroke-linecap="round" stroke-linejoin="round" fill="none" stroke="#000000" d="M-2.07222 2.39102C-1.69363 .95639-.85 .27896 0 0-.85-.27896-1.69363-.95639-2.07222-2.39102"/>
<use data-text="y" xlink:href="#font_1_2" transform="matrix(9.963098,0,0,-9.963098,71.9959,8.209656)"/>
<path transform="matrix(1.00005,0,0,-1.00005,74.617038,110.04974)" stroke-width=".39851" stroke-linecap="butt" stroke-miterlimit="10" stroke-linejoin="miter" fill="none" stroke="#000000" d="M-68.03041-3.40144V3.40144"/>
<use data-text="&#x2212;" xlink:href="#font_2_1" transform="matrix(9.963098,0,0,-9.963098,.21832276,120.574268)"/>
<use data-text="6" xlink:href="#font_3_6" transform="matrix(9.963098,0,0,-9.963098,7.9667055,120.574268)"/>
<path transform="matrix(1.00005,0,0,-1.00005,74.617038,110.04974)" stroke-width=".39851" stroke-linecap="butt" stroke-miterlimit="10" stroke-linejoin="miter" fill="none" stroke="#000000" d="M-45.3536-3.40144V3.40144"/>
<use data-text="&#x2212;" xlink:href="#font_2_1" transform="matrix(9.963098,0,0,-9.963098,22.895447,120.574268)"/>
<use data-text="4" xlink:href="#font_3_5" transform="matrix(9.963098,0,0,-9.963098,30.64383,120.574268)"/>
<path transform="matrix(1.00005,0,0,-1.00005,74.617038,110.04974)" stroke-width=".39851" stroke-linecap="butt" stroke-miterlimit="10" stroke-linejoin="miter" fill="none" stroke="#000000" d="M-22.6768-3.40144V3.40144"/>
<use data-text="&#x2212;" xlink:href="#font_2_1" transform="matrix(9.963098,0,0,-9.963098,45.573587,120.574268)"/>
<use data-text="2" xlink:href="#font_3_3" transform="matrix(9.963098,0,0,-9.963098,53.321969,120.574268)"/>
<path transform="matrix(1.00005,0,0,-1.00005,74.617038,110.04974)" stroke-width=".39851" stroke-linecap="butt" stroke-miterlimit="10" stroke-linejoin="miter" fill="none" stroke="#000000" d="M22.6768-3.40144V3.40144"/>
<use data-text="2" xlink:href="#font_3_3" transform="matrix(9.963098,0,0,-9.963098,94.80405,120.574268)"/>
<path transform="matrix(1.00005,0,0,-1.00005,74.617038,110.04974)" stroke-width=".39851" stroke-linecap="butt" stroke-miterlimit="10" stroke-linejoin="miter" fill="none" stroke="#000000" d="M45.3536-3.40144V3.40144"/>
<use data-text="4" xlink:href="#font_3_5" transform="matrix(9.963098,0,0,-9.963098,117.48218,120.574268)"/>
<path transform="matrix(1.00005,0,0,-1.00005,74.617038,110.04974)" stroke-width=".39851" stroke-linecap="butt" stroke-miterlimit="10" stroke-linejoin="miter" fill="none" stroke="#000000" d="M68.03041-3.40144V3.40144"/>
<use data-text="6" xlink:href="#font_3_6" transform="matrix(9.963098,0,0,-9.963098,140.16031,120.574268)"/>
<path transform="matrix(1.00005,0,0,-1.00005,74.617038,110.04974)" stroke-width=".39851" stroke-linecap="butt" stroke-miterlimit="10" stroke-linejoin="miter" fill="none" stroke="#000000" d="M90.70721-3.40144V3.40144"/>
<use data-text="8" xlink:href="#font_3_7" transform="matrix(9.963098,0,0,-9.963098,162.83844,120.574268)"/>
<path transform="matrix(1.00005,0,0,-1.00005,74.617038,110.04974)" stroke-width=".39851" stroke-linecap="butt" stroke-miterlimit="10" stroke-linejoin="miter" fill="none" stroke="#000000" d="M113.38402-3.40144V3.40144"/>
<use data-text="1" xlink:href="#font_3_2" transform="matrix(9.963098,0,0,-9.963098,183.02545,120.574268)"/>
<use data-text="0" xlink:href="#font_3_1" transform="matrix(9.963098,0,0,-9.963098,188.00699,120.574268)"/>
<path transform="matrix(1.00005,0,0,-1.00005,74.617038,110.04974)" stroke-width=".39851" stroke-linecap="butt" stroke-miterlimit="10" stroke-linejoin="miter" fill="none" stroke="#000000" d="M136.06082-3.40144V3.40144"/>
<use data-text="1" xlink:href="#font_3_2" transform="matrix(9.963098,0,0,-9.963098,205.70258,120.574268)"/>
<use data-text="2" xlink:href="#font_3_3" transform="matrix(9.963098,0,0,-9.963098,210.68412,120.574268)"/>
<path transform="matrix(1.00005,0,0,-1.00005,74.617038,110.04974)" stroke-width=".39851" stroke-linecap="butt" stroke-miterlimit="10" stroke-linejoin="miter" fill="none" stroke="#000000" d="M158.73763-3.40144V3.40144"/>
<use data-text="1" xlink:href="#font_3_2" transform="matrix(9.963098,0,0,-9.963098,228.3807,120.574268)"/>
<use data-text="4" xlink:href="#font_3_5" transform="matrix(9.963098,0,0,-9.963098,233.36225,120.574268)"/>
<path transform="matrix(1.00005,0,0,-1.00005,74.617038,110.04974)" stroke-width=".39851" stroke-linecap="butt" stroke-miterlimit="10" stroke-linejoin="miter" fill="none" stroke="#000000" d="M181.41443-3.40144V3.40144"/>
<use data-text="1" xlink:href="#font_3_2" transform="matrix(9.963098,0,0,-9.963098,251.05886,120.574268)"/>
<use data-text="6" xlink:href="#font_3_6" transform="matrix(9.963098,0,0,-9.963098,256.0404,120.574268)"/>
<path transform="matrix(1.00005,0,0,-1.00005,74.617038,110.04974)" stroke-width=".39851" stroke-linecap="butt" stroke-miterlimit="10" stroke-linejoin="miter" fill="none" stroke="#000000" d="M-4.5353-85.03934H4.5353"/>
<use data-text="&#x2212;" xlink:href="#font_2_1" transform="matrix(9.963098,0,0,-9.963098,56.92415,197.88813)"/>
<use data-text="3" xlink:href="#font_3_4" transform="matrix(9.963098,0,0,-9.963098,64.67253,197.88813)"/>
<path transform="matrix(1.00005,0,0,-1.00005,74.617038,110.04974)" stroke-width=".39851" stroke-linecap="butt" stroke-miterlimit="10" stroke-linejoin="miter" fill="none" stroke="#000000" d="M-4.5353-56.6929H4.5353"/>
<use data-text="&#x2212;" xlink:href="#font_2_1" transform="matrix(9.963098,0,0,-9.963098,56.92415,169.54071)"/>
<use data-text="2" xlink:href="#font_3_3" transform="matrix(9.963098,0,0,-9.963098,64.67253,169.54071)"/>
<path transform="matrix(1.00005,0,0,-1.00005,74.617038,110.04974)" stroke-width=".39851" stroke-linecap="butt" stroke-miterlimit="10" stroke-linejoin="miter" fill="none" stroke="#000000" d="M-4.5353-28.34645H4.5353"/>
<use data-text="&#x2212;" xlink:href="#font_2_1" transform="matrix(9.963098,0,0,-9.963098,56.92415,141.1933)"/>
<use data-text="1" xlink:href="#font_3_2" transform="matrix(9.963098,0,0,-9.963098,64.67253,141.1933)"/>
<path transform="matrix(1.00005,0,0,-1.00005,74.617038,110.04974)" stroke-width=".39851" stroke-linecap="butt" stroke-miterlimit="10" stroke-linejoin="miter" fill="none" stroke="#000000" d="M-4.5353 28.34645H4.5353"/>
<use data-text="1" xlink:href="#font_3_2" transform="matrix(9.963098,0,0,-9.963098,64.67354,84.91249)"/>
<path transform="matrix(1.00005,0,0,-1.00005,74.617038,110.04974)" stroke-width=".39851" stroke-linecap="butt" stroke-miterlimit="10" stroke-linejoin="miter" fill="none" stroke="#000000" d="M-4.5353 56.6929H4.5353"/>
<use data-text="2" xlink:href="#font_3_3" transform="matrix(9.963098,0,0,-9.963098,64.67354,56.56407)"/>
<path transform="matrix(1.00005,0,0,-1.00005,74.617038,110.04974)" stroke-width=".39851" stroke-linecap="butt" stroke-miterlimit="10" stroke-linejoin="miter" fill="none" stroke="#000000" d="M-4.5353 85.03934H4.5353"/>
<use data-text="3" xlink:href="#font_3_4" transform="matrix(9.963098,0,0,-9.963098,64.67354,28.216652)"/>
<path transform="matrix(1.00005,0,0,-1.00005,74.617038,110.04974)" stroke-width="1.19553" stroke-linecap="butt" stroke-miterlimit="10" stroke-linejoin="miter" fill="none" stroke="#ff0000" d="M-34.01521-96.37775V93.54335"/>
<path transform="matrix(1.00005,0,0,-1.00005,74.617038,110.04974)" stroke-width="1.19553" stroke-linecap="butt" stroke-miterlimit="10" stroke-linejoin="miter" fill="none" stroke="#ff0000" d="M11.33841-96.37775V93.54335"/>
<path transform="matrix(1.00005,0,0,-1.00005,74.617038,110.04974)" stroke-width="1.19553" stroke-linecap="butt" stroke-miterlimit="10" stroke-linejoin="miter" fill="none" stroke="#ff0000" d="M102.04562-96.37775V93.54335"/>
<path transform="matrix(1.00005,0,0,-1.00005,74.617038,110.04974)" stroke-width="1.19553" stroke-linecap="butt" stroke-miterlimit="10" stroke-linejoin="miter" fill="none" stroke="#0000ff" d="M163.72672-107.71657 157.17827-105.54051 150.76358-103.36444 144.4826-101.18835 138.3352-99.01228 132.32137-96.83623 126.44127-94.66016 120.69475-92.48409 115.08194-90.308 109.6027-88.13194 104.25702-85.95587 99.04509-83.7798 93.96672-81.60373 89.02208-79.42766 84.21103-77.25159 79.53369-75.07552 74.98991-72.89944 70.57971-70.72339 66.30325-68.5473 62.16034-66.37123 58.15117-64.19516 54.27557-62.0191 50.5337-59.84302 46.9254-57.66695 43.45067-55.49088 40.10966-53.31482 36.90239-51.13875 33.82852-48.96266 30.88838-46.78659 28.08199-44.61053 25.40915-42.43446 22.87006-40.25839 20.46434-38.0823 18.19255-35.90625 16.05432-33.73018 14.04965-31.55411 12.17854-29.37804 10.44116-27.20197 8.83754-25.0259 7.36748-22.84982 6.03096-20.67375 4.8282-18.4977 3.759-16.32161 2.82353-14.14554 2.02164-11.96947 1.35329-9.79341 .81868-7.61732 .41765-5.44125 .15036-3.26518 .0166-1.08913V1.08694L.15018 3.26303 .4173 5.4391 .81816 7.61517 1.35277 9.79123 2.02077 11.9673 2.82266 14.14339 3.75795 16.31946 4.82698 18.49551 6.02975 20.67159 7.36609 22.84766 8.83598 25.02374 10.43962 27.1998 12.1768 29.37587 14.04774 31.55194 16.05225 33.72803 18.19029 35.90408 20.4621 38.08015 22.86746 40.25623 25.40657 42.4323 28.07922 44.60837 30.88562 46.78444 33.82559 48.96051 36.89928 51.13658 40.10638 53.31264 43.44739 55.48872 46.92195 57.6648 50.53008 59.84087 54.27177 62.01692 58.14719 64.193 62.15636 66.36908 66.2991 68.54515 70.5754 70.7212 74.98543 72.89728 79.529 75.07335 84.20634 77.24944 89.01726 79.42549 93.9617 81.60156 99.0399 83.77763 104.25185 85.95372 109.59717 88.12978 115.0764 90.30585 120.68903 92.48192 126.4354 94.65799 132.31549 96.83406 138.32917 99.01013 144.47638 101.1862 150.75734 103.36227 157.17188 105.53833 163.72016 107.71442"/>
</svg>
