<svg xmlns="http://www.w3.org/2000/svg" xmlns:xlink="http://www.w3.org/1999/xlink" xmlns:inkscape="http://www.inkscape.org/namespaces/inkscape" version="1.1" width="456" height="62" viewBox="0 0 456 62">
<defs>
<path id="font_1_2" d="M.43998719 .16790772H.41799928C.4149933 .15092469 .40699769 .09597778 .39698792 .07998657 .3899994 .070999149 .33299256 .070999149 .30299378 .070999149H.117996219C.14498902 .09397888 .20599365 .15792847 .23199463 .18190003 .38398744 .3217926 .43998719 .37374879 .43998719 .47270204 .43998719 .5878906 .34899903 .66503909 .23298645 .66503909 .116989139 .66503909 .04899597 .5658264 .04899597 .4797058 .04899597 .42871095 .09298706 .42871095 .09599304 .42871095 .116989139 .42871095 .14299011 .44371034 .14299011 .475708 .14299011 .5037079 .12399292 .5227051 .09599304 .5227051 .08699036 .5227051 .084991458 .5227051 .08198547 .521698 .100997928 .5899048 .15499878 .6360321 .21998596 .6360321 .30499269 .6360321 .35699464 .56481936 .35699464 .47270204 .35699464 .3877411 .30799867 .313797 .25099183 .24984741L.04899597 .023986817V0H.4139862L.43998719 .16790772Z"/>
<path id="font_1_1" d="M.39898683 .23057556H.6749878C.68899539 .23057556 .70700076 .23057556 .70700076 .24856568 .70700076 .26757813 .6899872 .26757813 .6749878 .26757813H.39898683V.5441437C.39898683 .5581665 .39898683 .5761719 .3809967 .5761719 .3619995 .5761719 .3619995 .5591583 .3619995 .5441437V.26757813H.085998538C.07199097 .26757813 .053985597 .26757813 .053985597 .24957276 .053985597 .23057556 .070999149 .23057556 .085998538 .23057556H.3619995V-.045166017C.3619995-.059158327 .3619995-.07714844 .37998963-.07714844 .39898683-.07714844 .39898683-.060150148 .39898683-.045166017V.23057556Z"/>
<path id="font_2_107" d="M.5049896 .21514893H.46299745C.45999146 .19412232 .45298768 .13502503 .43798829 .125 .42999269 .117996219 .35198976 .117996219 .33699037 .117996219H.18199158L.32598878 .23718262C.43699647 .3203125 .5049896 .37139894 .5049896 .46749879 .5049896 .5853729 .397995 .65625 .2659912 .65625 .15299988 .65625 .055999757 .5923462 .055999757 .49749757 .055999757 .44448854 .09899902 .42948915 .12199402 .42948915 .15299988 .42948915 .18899536 .45048524 .18899536 .49649049 .18899536 .5384979 .1579895 .559494 .1269989 .5634918 .16699219 .6092682 .21998596 .6132355 .24099732 .6132355 .33299256 .6132355 .3769989 .5384979 .3769989 .4664917 .3769989 .38842774 .32398988 .3163147 .2829895 .27323915L.06599426 .04598999C.055999757 .036987306 .055999757 .034988405 .055999757 .016998291V0H.47599793L.5049896 .21514893Z"/>
<path id="font_2_57" d="M.5299988 0V.042999269H.43299867V.15718079H.5299988V.20019531H.43299867V.62919619C.43299867 .65419009 .43199159 .6582031 .40699769 .6582031 .3889923 .6582031 .3869934 .6582031 .375 .6431885L.0309906 .20019531V.15718079H.31498719V.042999269H.20599365V0C.23498535 .0019989014 .33399964 .0019989014 .36999513 .0019989014 .4039917 .0019989014 .5029907 .0019989014 .5299988 0M.32398988 .20019531H.07699585L.32398988 .5181885V.20019531Z"/>
<path id="font_2_101" d="M.5139923 .20610047C.5139923 .34596253 .4169922 .41992188 .2979889 .41992188 .27799989 .41992188 .21398926 .41992188 .17399597 .33496095V.36193849C.17399597 .42295838 .1769867 .4855957 .20498657 .53959658 .22698975 .581604 .27799989 .62023928 .34298707 .62023928 .3619995 .62023928 .397995 .61727908 .42199708 .5926056 .38398744 .5886078 .36799623 .5606079 .36799623 .53359988 .36799623 .49760438 .394989 .47460938 .4269867 .47460938 .45298768 .47460938 .48599244 .49160768 .48599244 .53559878 .48599244 .5955658 .44599916 .65625 .34098817 .65625 .21598816 .65625 .04699707 .578598 .04699707 .31698609 .04699707 .25004579 .04699707-.01171875 .28399659-.01171875 .41600038-.01171875 .5139923 .0662384 .5139923 .20610047M.3869934 .20709229C.3869934 .10820007 .3869934 .028274537 .2829895 .028274537 .21899414 .028274537 .19400025 .082214359 .18998719 .09020996 .17599488 .123184207 .17599488 .20309448 .17599488 .21209717 .17599488 .33496095 .22898865 .3869171 .28799439 .3869171 .3869934 .3869171 .3869934 .30699159 .3869934 .20709229Z"/>
<path id="font_2_51" d="M.5139923 .18426514C.5139923 .29325868 .42799378 .34025575 .3769989 .36825563 .4269867 .3942566 .48298646 .4312439 .48298646 .5092468 .48298646 .61224368 .3909912 .65625 .28199769 .65625 .14898682 .65625 .07798767 .580246 .07798767 .48324586 .07798767 .429245 .10499573 .36924745 .1789856 .33026124 .06599426 .28025819 .04699707 .21125794 .04699707 .15927124 .04699707 .044265748 .14698792-.01171875 .2789917-.01171875 .4269867-.01171875 .5139923 .06826782 .5139923 .18426514M.4119873 .5092468C.4119873 .46824647 .3939972 .4252472 .33699037 .3922577L.19699097 .47125245C.1769867 .48225404 .14898682 .505249 .14898682 .5382385 .14898682 .61824038 .2559967 .62023928 .2789917 .62023928 .3639984 .62023928 .4119873 .5752411 .4119873 .5092468M.43399049 .13327027C.43399049 .053268434 .35398866 .028274537 .28199769 .028274537 .18299866 .028274537 .1269989 .08126831 .1269989 .16026306 .1269989 .23326111 .17199707 .27926637 .21998596 .30625917L.35798646 .2272644C.3909912 .20826721 .43399049 .18426514 .43399049 .13327027Z"/>
<path id="font_2_82" d="M.48298646 0V.042999269H.34599305V.6270447C.34599305 .65625 .34399415 .65625 .31199647 .65625 .23799134 .5918274 .1269989 .5918274 .10499573 .5918274H.085998538V.5488281H.10499573C.13999939 .5488281 .19299317 .5548248 .23298645 .5678253V.042999269H.09399414V0L.28799439 .0019989014 .48298646 0Z"/>
<path id="font_2_121" d="M.5169983 .31925965C.5169983 .4152527 .5169983 .65625 .2809906 .65625 .04399109 .65625 .04399109 .4162445 .04399109 .31925965 .04399109 .2232666 .04399109-.01171875 .27999879-.01171875 .5159912-.01171875 .5169983 .22026062 .5169983 .31925965M.39698792 .33125306C.39698792 .09527588 .38198854 .08126831 .35198976 .05126953 .33198548 .031280519 .30499269 .021270752 .2809906 .021270752 .24899292 .021270752 .22499085 .03427124 .20498657 .055267335 .17999268 .08027649 .1639862 .0962677 .1639862 .33125306 .1639862 .40124513 .1639862 .46525575 .17199707 .51724246 .18598938 .61624148 .2579956 .62324526 .27999879 .62324526 .31199647 .62324526 .37399293 .60824587 .3880005 .5242462 .39698792 .47325135 .39698792 .3922577 .39698792 .33125306Z"/>
<path id="font_3_1" d="M.18399048 .04798889C.18399048 .07699585 .1599884 .09700012 .13598633 .09700012 .10699463 .09700012 .08699036 .07299805 .08699036 .04899597 .08699036 .019989014 .11099243 0 .1349945 0 .1639862 0 .18399048 .023986817 .18399048 .04798889Z"/>
</defs>
<use data-text="2" xlink:href="#font_1_2" transform="matrix(11.956396,0,0,-11.9552,10.161514,8.625)"/>
<use data-text="+" xlink:href="#font_1_1" transform="matrix(11.956396,0,0,-11.9552,51.0606,9.466999)"/>
<use data-text="2" xlink:href="#font_2_107" transform="matrix(11.956396,0,0,-11.9552,1.2176209,59.649)" fill="#0000cc"/>
<path transform="matrix(1.0001,0,0,-1,13.088806,59.649)" stroke-width=".79701" stroke-linecap="butt" stroke-miterlimit="10" stroke-linejoin="miter" fill="none" stroke="#a6a6a6" d="M.53156 12.6397 32.68481 43.67381"/>
<use data-text="2" xlink:href="#font_1_2" transform="matrix(11.956396,0,0,-11.9552,95.21101,8.625)"/>
<use data-text="+" xlink:href="#font_1_1" transform="matrix(11.956396,0,0,-11.9552,136.10912,9.466999)"/>
<use data-text="4" xlink:href="#font_2_57" transform="matrix(11.956396,0,0,-11.9552,86.26712,59.649)" fill="#0000cc"/>
<path transform="matrix(1.0001,0,0,-1,13.088806,59.649)" stroke-width=".79701" stroke-linecap="butt" stroke-miterlimit="10" stroke-linejoin="miter" fill="none" stroke="#a6a6a6" d="M85.57211 12.64963 117.71922 43.67395"/>
<use data-text="2" xlink:href="#font_1_2" transform="matrix(11.956396,0,0,-11.9552,180.25954,8.625)"/>
<use data-text="+" xlink:href="#font_1_1" transform="matrix(11.956396,0,0,-11.9552,221.15862,9.466999)"/>
<use data-text="6" xlink:href="#font_2_101" transform="matrix(11.956396,0,0,-11.9552,171.31563,59.649)" fill="#0000cc"/>
<path transform="matrix(1.0001,0,0,-1,13.088806,59.649)" stroke-width=".79701" stroke-linecap="butt" stroke-miterlimit="10" stroke-linejoin="miter" fill="none" stroke="#a6a6a6" d="M170.61095 12.58081 202.77864 43.67232"/>
<use data-text="2" xlink:href="#font_1_2" transform="matrix(11.956396,0,0,-11.9552,265.30903,8.625)"/>
<use data-text="+" xlink:href="#font_1_1" transform="matrix(11.956396,0,0,-11.9552,306.20713,9.466999)"/>
<use data-text="8" xlink:href="#font_2_51" transform="matrix(11.956396,0,0,-11.9552,256.3651,59.649)" fill="#0000cc"/>
<path transform="matrix(1.0001,0,0,-1,13.088806,59.649)" stroke-width=".79701" stroke-linecap="butt" stroke-miterlimit="10" stroke-linejoin="miter" fill="none" stroke="#a6a6a6" d="M255.65137 12.58081 287.81907 43.67232"/>
<use data-text="2" xlink:href="#font_1_2" transform="matrix(11.956396,0,0,-11.9552,350.3575,8.625)"/>
<use data-text="+" xlink:href="#font_1_1" transform="matrix(11.956396,0,0,-11.9552,391.25663,9.466999)"/>
<use data-text="1" xlink:href="#font_2_82" transform="matrix(11.956396,0,0,-11.9552,338.0483,59.649)" fill="#0000cc"/>
<use data-text="0" xlink:href="#font_2_121" transform="matrix(11.956396,0,0,-11.9552,344.7798,59.649)" fill="#0000cc"/>
<path transform="matrix(1.0001,0,0,-1,13.088806,59.649)" stroke-width=".79701" stroke-linecap="butt" stroke-miterlimit="10" stroke-linejoin="miter" fill="none" stroke="#a6a6a6" d="M341.57826 13.43951 372.85945 43.67241"/>
<use data-text="2" xlink:href="#font_1_2" transform="matrix(11.956396,0,0,-11.9552,435.40705,8.625)"/>
<use data-text="+" xlink:href="#font_1_1" transform="matrix(11.956396,0,0,-11.9552,476.30516,9.466999)"/>
<use data-text="1" xlink:href="#font_2_82" transform="matrix(11.956396,0,0,-11.9552,423.09684,59.649)" fill="#0000cc"/>
<use data-text="2" xlink:href="#font_2_107" transform="matrix(11.956396,0,0,-11.9552,429.8283,59.649)" fill="#0000cc"/>
<path transform="matrix(1.0001,0,0,-1,13.088806,59.649)" stroke-width=".79701" stroke-linecap="butt" stroke-miterlimit="10" stroke-linejoin="miter" fill="none" stroke="#a6a6a6" d="M426.55393 13.43791 457.88673 43.674"/>
<use data-text="." xlink:href="#font_3_1" transform="matrix(11.956396,0,0,-11.9552,508.00633,8.625)"/>
<use data-text="." xlink:href="#font_3_1" transform="matrix(11.956396,0,0,-11.9552,513.23129,8.625)"/>
<use data-text="." xlink:href="#font_3_1" transform="matrix(11.956396,0,0,-11.9552,518.4682,8.625)"/>
<use data-text="." xlink:href="#font_3_1" transform="matrix(11.956396,0,0,-11.9552,508.00633,59.649)"/>
<use data-text="." xlink:href="#font_3_1" transform="matrix(11.956396,0,0,-11.9552,513.23129,59.649)"/>
<use data-text="." xlink:href="#font_3_1" transform="matrix(11.956396,0,0,-11.9552,518.4682,59.649)"/>
</svg>
